<svg xmlns="http://www.w3.org/2000/svg" version="1.1" xmlns:xlink="http://www.w3.org/1999/xlink" xmlns:svgjs="http://svgjs.dev/svgjs" viewBox="0 0 10.835110924136588 8.812567503712762"><g transform="matrix(1,0,0,1,0.8134349176347007,5.741782586078061)"><g><path d=" M 1.1766857299804683 1.0799999999999996 Q 1.0926857299804684 1.0799999999999996 1.0176857299804682 1.0589999999999997 Q 0.9426857299804683 1.0379999999999998 0.8841857299804683 0.9952499999999997 Q 0.8256857299804683 0.9524999999999997 0.7919357299804684 0.8894999999999997 Q 0.7581857299804683 0.8264999999999997 0.7551857299804683 0.7424999999999997 Q 0.7551857299804683 0.7289999999999996 0.7641857299804683 0.7192499999999997 Q 0.7731857299804683 0.7094999999999998 0.7881857299804683 0.7094999999999998 L 0.9591857299804682 0.7094999999999998 Q 0.9786857299804683 0.7094999999999998 0.9899357299804683 0.7199999999999998 Q 1.0011857299804683 0.7304999999999997 1.0071857299804683 0.7499999999999998 Q 1.0146857299804684 0.7979999999999997 1.0386857299804684 0.8279999999999997 Q 1.0626857299804684 0.8579999999999997 1.0994357299804682 0.8722499999999997 Q 1.1361857299804683 0.8864999999999997 1.1826857299804683 0.8864999999999997 Q 1.2681857299804684 0.8864999999999997 1.3139357299804684 0.8309999999999997 Q 1.3596857299804683 0.7754999999999997 1.3596857299804683 0.6734999999999998 L 1.3596857299804683 0.2144999999999997 L 0.8601857299804683 0.2144999999999997 Q 0.8451857299804684 0.2144999999999997 0.8346857299804683 0.20399999999999974 Q 0.8241857299804684 0.19349999999999967 0.8241857299804684 0.17849999999999966 L 0.8241857299804684 0.05249999999999977 Q 0.8241857299804684 0.03599999999999981 0.8346857299804683 0.025499999999999634 Q 0.8451857299804684 0.01499999999999968 0.8601857299804683 0.01499999999999968 L 1.5666857299804682 0.01499999999999968 Q 1.5831857299804684 0.01499999999999968 1.5936857299804683 0.025499999999999634 Q 1.6041857299804683 0.03599999999999981 1.6041857299804683 0.05249999999999977 L 1.6041857299804683 0.6794999999999998 Q 1.6041857299804683 0.8084999999999998 1.5501857299804684 0.8977499999999997 Q 1.4961857299804682 0.9869999999999998 1.4001857299804683 1.0334999999999996 Q 1.3041857299804684 1.0799999999999996 1.1766857299804683 1.0799999999999996 M 2.2342018432617183 1.0799999999999996 Q 2.0977018432617185 1.0799999999999996 1.9987018432617183 1.0349999999999997 Q 1.8997018432617183 0.9899999999999998 1.8442018432617182 0.8992499999999997 Q 1.7887018432617183 0.8084999999999998 1.7842018432617184 0.6704999999999997 Q 1.7827018432617183 0.6059999999999997 1.7827018432617183 0.5422499999999997 Q 1.7827018432617183 0.4784999999999997 1.7842018432617184 0.41249999999999976 Q 1.7887018432617183 0.27749999999999975 1.8449518432617182 0.1852499999999997 Q 1.9012018432617184 0.09299999999999975 2.0009518432617184 0.046499999999999764 Q 2.100701843261718 -2.220446049250313e-16 2.2342018432617183 -2.220446049250313e-16 Q 2.3662018432617185 -2.220446049250313e-16 2.4659518432617182 0.046499999999999764 Q 2.5657018432617185 0.09299999999999975 2.6227018432617184 0.1852499999999997 Q 2.6797018432617183 0.27749999999999975 2.6827018432617185 0.41249999999999976 Q 2.685701843261718 0.4784999999999997 2.685701843261718 0.5422499999999997 Q 2.685701843261718 0.6059999999999997 2.6827018432617185 0.6704999999999997 Q 2.6782018432617183 0.8084999999999998 2.6227018432617184 0.8992499999999997 Q 2.567201843261718 0.9899999999999998 2.4682018432617183 1.0349999999999997 Q 2.3692018432617186 1.0799999999999996 2.2342018432617183 1.0799999999999996 M 2.2342018432617183 0.8864999999999997 Q 2.3212018432617185 0.8864999999999997 2.3774518432617184 0.8332499999999997 Q 2.4337018432617183 0.7799999999999997 2.4367018432617185 0.6629999999999997 Q 2.4397018432617186 0.5969999999999998 2.4397018432617186 0.5392499999999997 Q 2.4397018432617186 0.4814999999999997 2.4367018432617185 0.4169999999999997 Q 2.4352018432617184 0.33899999999999975 2.4082018432617183 0.28949999999999976 Q 2.381201843261718 0.23999999999999966 2.3369518432617182 0.21674999999999967 Q 2.2927018432617183 0.19349999999999967 2.2342018432617183 0.19349999999999967 Q 2.1757018432617183 0.19349999999999967 2.1307018432617184 0.21674999999999967 Q 2.0857018432617185 0.23999999999999966 2.0594518432617184 0.28949999999999976 Q 2.0332018432617183 0.33899999999999975 2.030201843261718 0.4169999999999997 Q 2.028701843261718 0.4814999999999997 2.028701843261718 0.5392499999999997 Q 2.028701843261718 0.5969999999999998 2.030201843261718 0.6629999999999997 Q 2.0347018432617183 0.7799999999999997 2.090201843261718 0.8332499999999997 Q 2.145701843261718 0.8864999999999997 2.2342018432617183 0.8864999999999997 M 3.249706237792968 1.0799999999999996 Q 3.1057062377929685 1.0799999999999996 3.0089562377929684 1.0379999999999998 Q 2.9122062377929683 0.9959999999999998 2.862706237792968 0.9284999999999997 Q 2.8132062377929685 0.8609999999999998 2.8102062377929684 0.7844999999999998 Q 2.8102062377929684 0.7724999999999997 2.8192062377929683 0.7627499999999997 Q 2.828206237792968 0.7529999999999997 2.8417062377929683 0.7529999999999997 L 3.002206237792968 0.7529999999999997 Q 3.0217062377929684 0.7529999999999997 3.0322062377929684 0.7612499999999998 Q 3.0427062377929683 0.7694999999999997 3.0517062377929682 0.7814999999999996 Q 3.062206237792968 0.8069999999999997 3.085456237792968 0.8309999999999997 Q 3.108706237792968 0.8549999999999998 3.1492062377929684 0.8707499999999997 Q 3.189706237792968 0.8864999999999997 3.249706237792968 0.8864999999999997 Q 3.3472062377929683 0.8864999999999997 3.3959562377929684 0.8549999999999998 Q 3.4447062377929685 0.8234999999999997 3.4447062377929685 0.7694999999999997 Q 3.4447062377929685 0.7304999999999997 3.4184562377929684 0.7064999999999997 Q 3.3922062377929683 0.6824999999999997 3.3359562377929683 0.6629999999999997 Q 3.2797062377929684 0.6434999999999997 3.1867062377929685 0.6209999999999998 Q 3.074206237792968 0.5969999999999998 2.9954562377929683 0.5587499999999997 Q 2.9167062377929684 0.5204999999999997 2.8769562377929683 0.45974999999999966 Q 2.837206237792968 0.3989999999999997 2.837206237792968 0.3089999999999997 Q 2.837206237792968 0.21899999999999975 2.886706237792968 0.14924999999999966 Q 2.9362062377929683 0.07949999999999968 3.026206237792968 0.03974999999999973 Q 3.1162062377929685 -2.220446049250313e-16 3.2407062377929683 -2.220446049250313e-16 Q 3.341206237792968 -2.220446049250313e-16 3.4184562377929684 0.02699999999999969 Q 3.495706237792968 0.053999999999999604 3.5474562377929684 0.0974999999999997 Q 3.599206237792968 0.14099999999999968 3.6262062377929682 0.19049999999999967 Q 3.6532062377929684 0.23999999999999966 3.6547062377929684 0.28649999999999975 Q 3.6547062377929684 0.29849999999999965 3.645706237792968 0.3082499999999997 Q 3.636706237792968 0.3179999999999997 3.623206237792968 0.3179999999999997 L 3.4552062377929684 0.3179999999999997 Q 3.4402062377929683 0.3179999999999997 3.4282062377929683 0.3119999999999997 Q 3.4162062377929683 0.3059999999999997 3.4087062377929684 0.2909999999999997 Q 3.3997062377929685 0.25199999999999967 3.355456237792968 0.22274999999999967 Q 3.3112062377929683 0.19349999999999967 3.2407062377929683 0.19349999999999967 Q 3.167206237792968 0.19349999999999967 3.1244562377929683 0.2204999999999997 Q 3.0817062377929685 0.24749999999999972 3.0817062377929685 0.3029999999999997 Q 3.0817062377929685 0.33899999999999975 3.1034562377929684 0.3637499999999997 Q 3.1252062377929684 0.38849999999999973 3.176956237792968 0.40724999999999967 Q 3.2287062377929683 0.4259999999999997 3.3142062377929684 0.4484999999999997 Q 3.4462062377929685 0.4754999999999997 3.528706237792968 0.5129999999999997 Q 3.6112062377929686 0.5504999999999998 3.6502062377929683 0.6097499999999998 Q 3.6892062377929684 0.6689999999999997 3.6892062377929684 0.7589999999999997 Q 3.6892062377929684 0.8594999999999997 3.6329562377929685 0.9314999999999998 Q 3.576706237792968 1.0034999999999998 3.4784562377929684 1.0417499999999997 Q 3.3802062377929682 1.0799999999999996 3.249706237792968 1.0799999999999996 M 3.887172546386718 1.0649999999999997 Q 3.8706725463867184 1.0649999999999997 3.8601725463867185 1.0544999999999998 Q 3.8496725463867185 1.0439999999999998 3.8496725463867185 1.0274999999999996 L 3.8496725463867185 0.05249999999999977 Q 3.8496725463867185 0.03599999999999981 3.8601725463867185 0.025499999999999634 Q 3.8706725463867184 0.01499999999999968 3.887172546386718 0.01499999999999968 L 4.056672546386718 0.01499999999999968 Q 4.0731725463867186 0.01499999999999968 4.083672546386718 0.025499999999999634 Q 4.0941725463867185 0.03599999999999981 4.0941725463867185 0.05249999999999977 L 4.0941725463867185 1.0274999999999996 Q 4.0941725463867185 1.0439999999999998 4.083672546386718 1.0544999999999998 Q 4.0731725463867186 1.0649999999999997 4.056672546386718 1.0649999999999997 L 3.887172546386718 1.0649999999999997 M 4.254633728027343 1.0649999999999997 Q 4.241133728027343 1.0649999999999997 4.2321337280273434 1.0552499999999998 Q 4.223133728027343 1.0454999999999997 4.223133728027343 1.0334999999999996 Q 4.223133728027343 1.0259999999999998 4.224633728027343 1.0199999999999998 L 4.581633728027343 0.05549999999999966 Q 4.5861337280273435 0.0389999999999997 4.599633728027343 0.02699999999999969 Q 4.613133728027344 0.01499999999999968 4.637133728027344 0.01499999999999968 L 4.829133728027343 0.01499999999999968 Q 4.853133728027343 0.01499999999999968 4.8666337280273435 0.02699999999999969 Q 4.880133728027343 0.0389999999999997 4.884633728027343 0.05549999999999966 L 5.2416337280273435 1.0199999999999998 Q 5.243133728027344 1.0259999999999998 5.243133728027344 1.0334999999999996 Q 5.243133728027344 1.0454999999999997 5.234133728027343 1.0552499999999998 Q 5.225133728027343 1.0649999999999997 5.211633728027343 1.0649999999999997 L 5.055633728027344 1.0649999999999997 Q 5.033133728027344 1.0649999999999997 5.022633728027343 1.0544999999999998 Q 5.012133728027344 1.0439999999999998 5.009133728027344 1.0349999999999997 L 4.944633728027343 0.8669999999999998 L 4.521633728027343 0.8669999999999998 L 4.457133728027343 1.0349999999999997 Q 4.454133728027343 1.0439999999999998 4.4436337280273435 1.0544999999999998 Q 4.433133728027343 1.0649999999999997 4.410633728027343 1.0649999999999997 L 4.254633728027343 1.0649999999999997 M 4.577133728027343 0.6734999999999998 L 4.887633728027343 0.6734999999999998 L 4.733133728027344 0.24149999999999971 L 4.577133728027343 0.6734999999999998 M 5.733623474121093 1.0799999999999996 Q 5.589623474121093 1.0799999999999996 5.492873474121093 1.0379999999999998 Q 5.396123474121094 0.9959999999999998 5.346623474121094 0.9284999999999997 Q 5.2971234741210935 0.8609999999999998 5.294123474121093 0.7844999999999998 Q 5.294123474121093 0.7724999999999997 5.303123474121094 0.7627499999999997 Q 5.312123474121093 0.7529999999999997 5.325623474121094 0.7529999999999997 L 5.486123474121094 0.7529999999999997 Q 5.505623474121093 0.7529999999999997 5.516123474121093 0.7612499999999998 Q 5.526623474121093 0.7694999999999997 5.535623474121094 0.7814999999999996 Q 5.546123474121093 0.8069999999999997 5.569373474121093 0.8309999999999997 Q 5.592623474121093 0.8549999999999998 5.633123474121093 0.8707499999999997 Q 5.673623474121094 0.8864999999999997 5.733623474121093 0.8864999999999997 Q 5.831123474121093 0.8864999999999997 5.879873474121093 0.8549999999999998 Q 5.9286234741210935 0.8234999999999997 5.9286234741210935 0.7694999999999997 Q 5.9286234741210935 0.7304999999999997 5.902373474121093 0.7064999999999997 Q 5.876123474121093 0.6824999999999997 5.819873474121094 0.6629999999999997 Q 5.763623474121093 0.6434999999999997 5.6706234741210935 0.6209999999999998 Q 5.558123474121094 0.5969999999999998 5.479373474121093 0.5587499999999997 Q 5.400623474121093 0.5204999999999997 5.360873474121093 0.45974999999999966 Q 5.3211234741210935 0.3989999999999997 5.3211234741210935 0.3089999999999997 Q 5.3211234741210935 0.21899999999999975 5.370623474121094 0.14924999999999966 Q 5.420123474121094 0.07949999999999968 5.510123474121094 0.03974999999999973 Q 5.6001234741210935 -2.220446049250313e-16 5.724623474121094 -2.220446049250313e-16 Q 5.825123474121093 -2.220446049250313e-16 5.902373474121093 0.02699999999999969 Q 5.979623474121094 0.053999999999999604 6.031373474121093 0.0974999999999997 Q 6.083123474121093 0.14099999999999968 6.110123474121093 0.19049999999999967 Q 6.137123474121093 0.23999999999999966 6.138623474121093 0.28649999999999975 Q 6.138623474121093 0.29849999999999965 6.129623474121093 0.3082499999999997 Q 6.120623474121094 0.3179999999999997 6.107123474121093 0.3179999999999997 L 5.939123474121093 0.3179999999999997 Q 5.924123474121093 0.3179999999999997 5.912123474121094 0.3119999999999997 Q 5.900123474121093 0.3059999999999997 5.892623474121093 0.2909999999999997 Q 5.8836234741210935 0.25199999999999967 5.839373474121094 0.22274999999999967 Q 5.795123474121093 0.19349999999999967 5.724623474121094 0.19349999999999967 Q 5.651123474121094 0.19349999999999967 5.608373474121093 0.2204999999999997 Q 5.565623474121093 0.24749999999999972 5.565623474121093 0.3029999999999997 Q 5.565623474121093 0.33899999999999975 5.587373474121093 0.3637499999999997 Q 5.609123474121093 0.38849999999999973 5.660873474121093 0.40724999999999967 Q 5.712623474121093 0.4259999999999997 5.798123474121093 0.4484999999999997 Q 5.9301234741210935 0.4754999999999997 6.012623474121093 0.5129999999999997 Q 6.095123474121094 0.5504999999999998 6.134123474121093 0.6097499999999998 Q 6.173123474121093 0.6689999999999997 6.173123474121093 0.7589999999999997 Q 6.173123474121093 0.8594999999999997 6.1168734741210935 0.9314999999999998 Q 6.060623474121093 1.0034999999999998 5.962373474121093 1.0417499999999997 Q 5.864123474121094 1.0799999999999996 5.733623474121093 1.0799999999999996 M 6.371089782714844 1.0649999999999997 Q 6.356089782714843 1.0649999999999997 6.3448397827148435 1.0544999999999998 Q 6.333589782714843 1.0439999999999998 6.333589782714843 1.0274999999999996 L 6.333589782714843 0.05249999999999977 Q 6.333589782714843 0.03599999999999981 6.3448397827148435 0.025499999999999634 Q 6.356089782714843 0.01499999999999968 6.371089782714844 0.01499999999999968 L 6.510589782714844 0.01499999999999968 Q 6.5330897827148435 0.01499999999999968 6.544339782714843 0.02699999999999969 Q 6.5555897827148435 0.0389999999999997 6.560089782714844 0.04499999999999971 L 6.8360897827148435 0.5534999999999997 L 7.115089782714843 0.04499999999999971 Q 7.1180897827148435 0.0389999999999997 7.129339782714843 0.02699999999999969 Q 7.1405897827148435 0.01499999999999968 7.163089782714843 0.01499999999999968 L 7.302589782714843 0.01499999999999968 Q 7.319089782714843 0.01499999999999968 7.3295897827148435 0.025499999999999634 Q 7.340089782714843 0.03599999999999981 7.340089782714843 0.05249999999999977 L 7.340089782714843 1.0274999999999996 Q 7.340089782714843 1.0439999999999998 7.3295897827148435 1.0544999999999998 Q 7.319089782714843 1.0649999999999997 7.302589782714843 1.0649999999999997 L 7.149589782714843 1.0649999999999997 Q 7.134589782714843 1.0649999999999997 7.124089782714844 1.0544999999999998 Q 7.113589782714843 1.0439999999999998 7.113589782714843 1.0274999999999996 L 7.113589782714843 0.42149999999999976 L 6.923089782714843 0.7784999999999997 Q 6.915589782714843 0.7919999999999997 6.903589782714843 0.8024999999999998 Q 6.891589782714844 0.8129999999999997 6.872089782714843 0.8129999999999997 L 6.801589782714843 0.8129999999999997 Q 6.782089782714843 0.8129999999999997 6.770089782714844 0.8024999999999998 Q 6.758089782714843 0.7919999999999997 6.750589782714844 0.7784999999999997 L 6.560089782714844 0.42149999999999976 L 6.560089782714844 1.0274999999999996 Q 6.560089782714844 1.0439999999999998 6.549589782714843 1.0544999999999998 Q 6.539089782714843 1.0649999999999997 6.524089782714843 1.0649999999999997 L 6.371089782714844 1.0649999999999997 M 7.599544372558594 1.0649999999999997 Q 7.583044372558593 1.0649999999999997 7.5725443725585935 1.0544999999999998 Q 7.562044372558593 1.0439999999999998 7.562044372558593 1.0274999999999996 L 7.562044372558593 0.05249999999999977 Q 7.562044372558593 0.03599999999999981 7.5725443725585935 0.025499999999999634 Q 7.583044372558593 0.01499999999999968 7.599544372558594 0.01499999999999968 L 8.045044372558593 0.01499999999999968 Q 8.169544372558594 0.01499999999999968 8.249044372558593 0.05099999999999971 Q 8.328544372558593 0.08699999999999974 8.366794372558594 0.1529999999999997 Q 8.405044372558594 0.21899999999999975 8.405044372558594 0.30749999999999966 Q 8.405044372558594 0.36299999999999966 8.384794372558593 0.4049999999999997 Q 8.364544372558594 0.44699999999999973 8.335294372558593 0.47399999999999975 Q 8.306044372558594 0.5009999999999997 8.279044372558593 0.5144999999999997 Q 8.337544372558593 0.5414999999999998 8.381794372558593 0.6037499999999998 Q 8.426044372558593 0.6659999999999997 8.426044372558593 0.7514999999999997 Q 8.426044372558593 0.8459999999999998 8.384044372558593 0.9164999999999998 Q 8.342044372558593 0.9869999999999998 8.259544372558594 1.0259999999999998 Q 8.177044372558594 1.0649999999999997 8.058544372558593 1.0649999999999997 L 7.599544372558594 1.0649999999999997 M 7.800544372558593 0.8894999999999997 L 8.030044372558594 0.8894999999999997 Q 8.103544372558593 0.8894999999999997 8.141044372558593 0.8482499999999997 Q 8.178544372558594 0.8069999999999997 8.178544372558594 0.7499999999999998 Q 8.178544372558594 0.6914999999999998 8.140294372558593 0.6517499999999997 Q 8.102044372558593 0.6119999999999997 8.030044372558594 0.6119999999999997 L 7.800544372558593 0.6119999999999997 L 7.800544372558593 0.8894999999999997 M 7.800544372558593 0.43949999999999967 L 8.016544372558593 0.43949999999999967 Q 8.087044372558593 0.43949999999999967 8.122294372558594 0.40424999999999967 Q 8.157544372558593 0.36899999999999966 8.157544372558593 0.31349999999999967 Q 8.157544372558593 0.2579999999999997 8.122294372558594 0.22424999999999973 Q 8.087044372558593 0.19049999999999967 8.016544372558593 0.19049999999999967 L 7.800544372558593 0.19049999999999967 L 7.800544372558593 0.43949999999999967" fill="#212245" fill-rule="nonzero"></path></g><g><path d=" M 0.15375 2.1013499999999996 Q 0.14400000000000002 2.1013499999999996 0.138375 2.0960999999999994 Q 0.13275 2.0908499999999997 0.1305 2.0810999999999997 L 0.03375 1.5995999999999997 Q 0.033 1.5965999999999996 0.033 1.5943499999999995 Q 0.033 1.5920999999999996 0.033 1.5913499999999996 Q 0.033 1.5853499999999996 0.0375 1.5808499999999996 Q 0.042 1.5763499999999997 0.048 1.5763499999999997 L 0.08700000000000001 1.5763499999999997 Q 0.10275000000000001 1.5763499999999997 0.105 1.5890999999999997 L 0.1815 1.9760999999999995 L 0.2625 1.7105999999999997 Q 0.26475 1.7038499999999996 0.27037500000000003 1.6982249999999997 Q 0.276 1.6925999999999997 0.28650000000000003 1.6925999999999997 L 0.31425000000000003 1.6925999999999997 Q 0.3255 1.6925999999999997 0.33075 1.6982249999999997 Q 0.336 1.7038499999999996 0.3375 1.7105999999999997 L 0.41925 1.9760999999999995 L 0.495 1.5890999999999997 Q 0.49725 1.5763499999999997 0.51375 1.5763499999999997 L 0.55275 1.5763499999999997 Q 0.55875 1.5763499999999997 0.56325 1.5808499999999996 Q 0.56775 1.5853499999999996 0.56775 1.5913499999999996 Q 0.56775 1.5920999999999996 0.567375 1.5943499999999995 Q 0.5670000000000001 1.5965999999999996 0.5670000000000001 1.5995999999999997 L 0.47025 2.0810999999999997 Q 0.468 2.0908499999999997 0.46237500000000004 2.0960999999999994 Q 0.45675 2.1013499999999996 0.447 2.1013499999999996 L 0.41775 2.1013499999999996 Q 0.40725 2.1013499999999996 0.40125 2.0960999999999994 Q 0.39525 2.0908499999999997 0.393 2.0826 L 0.3 1.7968499999999996 L 0.20775000000000002 2.0826 Q 0.20475000000000002 2.0908499999999997 0.199125 2.0960999999999994 Q 0.1935 2.1013499999999996 0.183 2.1013499999999996 L 0.15375 2.1013499999999996 M 0.68439404296875 2.1013499999999996 Q 0.67614404296875 2.1013499999999996 0.6716440429687499 2.0964749999999994 Q 0.66714404296875 2.0915999999999997 0.66714404296875 2.0840999999999994 L 0.66714404296875 1.5943499999999995 Q 0.66714404296875 1.5860999999999996 0.6716440429687499 1.5812249999999994 Q 0.67614404296875 1.5763499999999997 0.68439404296875 1.5763499999999997 L 0.9941440429687499 1.5763499999999997 Q 1.00239404296875 1.5763499999999997 1.0068940429687498 1.5812249999999994 Q 1.01139404296875 1.5860999999999996 1.01139404296875 1.5943499999999995 L 1.01139404296875 1.6228499999999997 Q 1.01139404296875 1.6310999999999996 1.0068940429687498 1.6355999999999997 Q 1.00239404296875 1.6400999999999997 0.9941440429687499 1.6400999999999997 L 0.7391440429687499 1.6400999999999997 L 0.7391440429687499 1.8043499999999997 L 0.97764404296875 1.8043499999999997 Q 0.9858940429687499 1.8043499999999997 0.9903940429687499 1.8092249999999996 Q 0.99489404296875 1.8140999999999996 0.99489404296875 1.8223499999999997 L 0.99489404296875 1.8500999999999996 Q 0.99489404296875 1.8575999999999997 0.9903940429687499 1.8624749999999997 Q 0.9858940429687499 1.8673499999999996 0.97764404296875 1.8673499999999996 L 0.7391440429687499 1.8673499999999996 L 0.7391440429687499 2.0375999999999994 L 1.00014404296875 2.0375999999999994 Q 1.00839404296875 2.0375999999999994 1.01289404296875 2.0420999999999996 Q 1.01739404296875 2.0465999999999998 1.01739404296875 2.0548499999999996 L 1.01739404296875 2.0840999999999994 Q 1.01739404296875 2.0915999999999997 1.01289404296875 2.0964749999999994 Q 1.00839404296875 2.1013499999999996 1.00014404296875 2.1013499999999996 L 0.68439404296875 2.1013499999999996 M 1.1400325927734374 2.1013499999999996 Q 1.1317825927734373 2.1013499999999996 1.1272825927734373 2.0964749999999994 Q 1.1227825927734374 2.0915999999999997 1.1227825927734374 2.0840999999999994 L 1.1227825927734374 1.5943499999999995 Q 1.1227825927734374 1.5860999999999996 1.1272825927734373 1.5812249999999994 Q 1.1317825927734373 1.5763499999999997 1.1400325927734374 1.5763499999999997 L 1.3455325927734374 1.5763499999999997 Q 1.4017825927734373 1.5763499999999997 1.4374075927734373 1.5947249999999995 Q 1.4730325927734373 1.6130999999999995 1.4899075927734373 1.6445999999999996 Q 1.5067825927734373 1.6760999999999995 1.5067825927734373 1.7150999999999996 Q 1.5067825927734373 1.7458499999999997 1.4966575927734374 1.7679749999999996 Q 1.4865325927734374 1.7900999999999996 1.4715325927734373 1.8039749999999997 Q 1.4565325927734374 1.8178499999999995 1.4422825927734373 1.8253499999999996 Q 1.4715325927734373 1.8395999999999997 1.4944075927734373 1.8718499999999996 Q 1.5172825927734372 1.9040999999999997 1.5172825927734372 1.9498499999999996 Q 1.5172825927734372 1.9910999999999996 1.4985325927734374 2.0255999999999994 Q 1.4797825927734374 2.0601 1.4426575927734373 2.0807249999999997 Q 1.4055325927734375 2.1013499999999996 1.3515325927734374 2.1013499999999996 L 1.1400325927734374 2.1013499999999996 M 1.1962825927734373 2.0405999999999995 L 1.3417825927734373 2.0405999999999995 Q 1.3897825927734373 2.0405999999999995 1.4160325927734374 2.0143499999999994 Q 1.4422825927734373 1.9880999999999995 1.4422825927734373 1.9498499999999996 Q 1.4422825927734373 1.9100999999999997 1.4160325927734374 1.8842249999999996 Q 1.3897825927734373 1.8583499999999997 1.3417825927734373 1.8583499999999997 L 1.1962825927734373 1.8583499999999997 L 1.1962825927734373 2.0405999999999995 M 1.1962825927734373 1.7983499999999997 L 1.3342825927734374 1.7983499999999997 Q 1.3822825927734375 1.7983499999999997 1.4070325927734375 1.7762249999999997 Q 1.4317825927734373 1.7540999999999995 1.4317825927734373 1.7158499999999997 Q 1.4317825927734373 1.6775999999999995 1.4070325927734375 1.6573499999999997 Q 1.3822825927734375 1.6370999999999996 1.3342825927734374 1.6370999999999996 L 1.1962825927734373 1.6370999999999996 L 1.1962825927734373 1.7983499999999997 M 1.8270512695312497 2.1013499999999996 Q 1.8188012695312497 2.1013499999999996 1.8143012695312497 2.0964749999999994 Q 1.8098012695312498 2.0915999999999997 1.8098012695312498 2.0840999999999994 L 1.8098012695312498 1.5943499999999995 Q 1.8098012695312498 1.5860999999999996 1.8143012695312497 1.5812249999999994 Q 1.8188012695312497 1.5763499999999997 1.8270512695312497 1.5763499999999997 L 1.9973012695312498 1.5763499999999997 Q 2.07455126953125 1.5763499999999997 2.12180126953125 1.5995999999999997 Q 2.16905126953125 1.6228499999999997 2.1908012695312498 1.6682249999999996 Q 2.2125512695312497 1.7135999999999996 2.2133012695312497 1.7795999999999996 Q 2.2140512695312498 1.8133499999999996 2.2140512695312498 1.8388499999999997 Q 2.2140512695312498 1.8643499999999995 2.2133012695312497 1.8973499999999996 Q 2.2118012695312497 1.9663499999999996 2.1904262695312497 2.0117249999999998 Q 2.16905126953125 2.0570999999999997 2.12292626953125 2.0792249999999997 Q 2.07680126953125 2.1013499999999996 2.0010512695312497 2.1013499999999996 L 1.8270512695312497 2.1013499999999996 M 1.8833012695312497 2.0375999999999994 L 1.9973012695312498 2.0375999999999994 Q 2.0490512695312497 2.0375999999999994 2.0798012695312496 2.0233499999999998 Q 2.11055126953125 2.0090999999999997 2.12442626953125 1.9775999999999996 Q 2.1383012695312495 1.9460999999999995 2.1390512695312496 1.8943499999999995 Q 2.1405512695312496 1.8718499999999996 2.1405512695312496 1.8549749999999996 Q 2.1405512695312496 1.8380999999999996 2.1405512695312496 1.8212249999999996 Q 2.1405512695312496 1.8043499999999997 2.1390512695312496 1.7825999999999995 Q 2.13755126953125 1.7098499999999996 2.1045512695312496 1.6749749999999997 Q 2.0715512695312497 1.6400999999999997 1.9935512695312498 1.6400999999999997 L 1.8833012695312497 1.6400999999999997 L 1.8833012695312497 2.0375999999999994 M 2.3449456787109373 2.1013499999999996 Q 2.3366956787109374 2.1013499999999996 2.3321956787109372 2.0964749999999994 Q 2.327695678710937 2.0915999999999997 2.327695678710937 2.0840999999999994 L 2.327695678710937 1.5943499999999995 Q 2.327695678710937 1.5860999999999996 2.3321956787109372 1.5812249999999994 Q 2.3366956787109374 1.5763499999999997 2.3449456787109373 1.5763499999999997 L 2.6546956787109375 1.5763499999999997 Q 2.6629456787109373 1.5763499999999997 2.667445678710937 1.5812249999999994 Q 2.6719456787109372 1.5860999999999996 2.6719456787109372 1.5943499999999995 L 2.6719456787109372 1.6228499999999997 Q 2.6719456787109372 1.6310999999999996 2.667445678710937 1.6355999999999997 Q 2.6629456787109373 1.6400999999999997 2.6546956787109375 1.6400999999999997 L 2.399695678710937 1.6400999999999997 L 2.399695678710937 1.8043499999999997 L 2.6381956787109373 1.8043499999999997 Q 2.646445678710937 1.8043499999999997 2.6509456787109373 1.8092249999999996 Q 2.6554456787109375 1.8140999999999996 2.6554456787109375 1.8223499999999997 L 2.6554456787109375 1.8500999999999996 Q 2.6554456787109375 1.8575999999999997 2.6509456787109373 1.8624749999999997 Q 2.646445678710937 1.8673499999999996 2.6381956787109373 1.8673499999999996 L 2.399695678710937 1.8673499999999996 L 2.399695678710937 2.0375999999999994 L 2.6606956787109373 2.0375999999999994 Q 2.668945678710937 2.0375999999999994 2.6734456787109373 2.0420999999999996 Q 2.6779456787109375 2.0465999999999998 2.6779456787109375 2.0548499999999996 L 2.6779456787109375 2.0840999999999994 Q 2.6779456787109375 2.0915999999999997 2.6734456787109373 2.0964749999999994 Q 2.668945678710937 2.1013499999999996 2.6606956787109373 2.1013499999999996 L 2.3449456787109373 2.1013499999999996 M 2.9333375244140623 2.1013499999999996 Q 2.9220875244140623 2.1013499999999996 2.9157125244140625 2.0960999999999994 Q 2.9093375244140622 2.0908499999999997 2.905587524414062 2.0818499999999998 L 2.7383375244140624 1.5995999999999997 Q 2.7368375244140624 1.5950999999999995 2.7368375244140624 1.5913499999999996 Q 2.7368375244140624 1.5853499999999996 2.7413375244140625 1.5808499999999996 Q 2.7458375244140623 1.5763499999999997 2.7518375244140625 1.5763499999999997 L 2.790837524414062 1.5763499999999997 Q 2.7998375244140625 1.5763499999999997 2.8047125244140623 1.5812249999999994 Q 2.8095875244140625 1.5860999999999996 2.8110875244140625 1.5898499999999995 L 2.9573375244140623 2.0150999999999994 L 3.1043375244140625 1.5898499999999995 Q 3.105837524414062 1.5860999999999996 3.1103375244140623 1.5812249999999994 Q 3.1148375244140625 1.5763499999999997 3.1238375244140624 1.5763499999999997 L 3.162837524414062 1.5763499999999997 Q 3.1688375244140623 1.5763499999999997 3.1737125244140625 1.5808499999999996 Q 3.1785875244140622 1.5853499999999996 3.1785875244140622 1.5913499999999996 Q 3.1785875244140622 1.5950999999999995 3.177087524414062 1.5995999999999997 L 3.0090875244140625 2.0818499999999998 Q 3.0060875244140624 2.0908499999999997 2.999712524414062 2.0960999999999994 Q 2.9933375244140623 2.1013499999999996 2.9820875244140623 2.1013499999999996 L 2.9333375244140623 2.1013499999999996 M 3.4418726806640625 2.2573499999999997 Q 3.434372680664062 2.2573499999999997 3.4294976806640625 2.2524749999999996 Q 3.4246226806640623 2.2475999999999994 3.4246226806640623 2.2400999999999995 L 3.4246226806640623 1.4465999999999997 Q 3.4246226806640623 1.4390999999999996 3.4294976806640625 1.4342249999999996 Q 3.434372680664062 1.4293499999999995 3.4418726806640625 1.4293499999999995 L 3.4711226806640623 1.4293499999999995 Q 3.4786226806640625 1.4293499999999995 3.4834976806640623 1.4342249999999996 Q 3.4883726806640625 1.4390999999999996 3.4883726806640625 1.4465999999999997 L 3.4883726806640625 2.2400999999999995 Q 3.4883726806640625 2.2475999999999994 3.4834976806640623 2.2524749999999996 Q 3.4786226806640625 2.2573499999999997 3.4711226806640623 2.2573499999999997 L 3.4418726806640625 2.2573499999999997 M 3.9083291015625 2.1013499999999996 Q 3.9008291015625 2.1013499999999996 3.8959541015625 2.0964749999999994 Q 3.8910791015625 2.0915999999999997 3.8910791015625 2.0840999999999994 L 3.8910791015625 1.6430999999999996 L 3.7470791015625 1.6430999999999996 Q 3.7395791015625 1.6430999999999996 3.7347041015625 1.6382249999999996 Q 3.7298291015625 1.6333499999999996 3.7298291015625 1.6258499999999996 L 3.7298291015625 1.5943499999999995 Q 3.7298291015625 1.5860999999999996 3.7347041015625 1.5812249999999994 Q 3.7395791015625 1.5763499999999997 3.7470791015625 1.5763499999999997 L 4.1085791015625 1.5763499999999997 Q 4.1168291015625 1.5763499999999997 4.1217041015625 1.5812249999999994 Q 4.1265791015625 1.5860999999999996 4.1265791015625 1.5943499999999995 L 4.1265791015625 1.6258499999999996 Q 4.1265791015625 1.6333499999999996 4.1217041015625 1.6382249999999996 Q 4.1168291015625 1.6430999999999996 4.1085791015625 1.6430999999999996 L 3.9653291015625 1.6430999999999996 L 3.9653291015625 2.0840999999999994 Q 3.9653291015625 2.0915999999999997 3.9604541015625 2.0964749999999994 Q 3.9555791015625 2.1013499999999996 3.9473291015625 2.1013499999999996 L 3.9083291015625 2.1013499999999996 M 4.228938720703124 2.1013499999999996 Q 4.220688720703125 2.1013499999999996 4.216188720703125 2.0964749999999994 Q 4.211688720703124 2.0915999999999997 4.211688720703124 2.0840999999999994 L 4.211688720703124 1.5943499999999995 Q 4.211688720703124 1.5860999999999996 4.216188720703125 1.5812249999999994 Q 4.220688720703125 1.5763499999999997 4.228938720703124 1.5763499999999997 L 4.538688720703124 1.5763499999999997 Q 4.546938720703125 1.5763499999999997 4.551438720703125 1.5812249999999994 Q 4.555938720703125 1.5860999999999996 4.555938720703125 1.5943499999999995 L 4.555938720703125 1.6228499999999997 Q 4.555938720703125 1.6310999999999996 4.551438720703125 1.6355999999999997 Q 4.546938720703125 1.6400999999999997 4.538688720703124 1.6400999999999997 L 4.2836887207031245 1.6400999999999997 L 4.2836887207031245 1.8043499999999997 L 4.522188720703125 1.8043499999999997 Q 4.530438720703125 1.8043499999999997 4.534938720703124 1.8092249999999996 Q 4.539438720703124 1.8140999999999996 4.539438720703124 1.8223499999999997 L 4.539438720703124 1.8500999999999996 Q 4.539438720703124 1.8575999999999997 4.534938720703124 1.8624749999999997 Q 4.530438720703125 1.8673499999999996 4.522188720703125 1.8673499999999996 L 4.2836887207031245 1.8673499999999996 L 4.2836887207031245 2.0375999999999994 L 4.544688720703125 2.0375999999999994 Q 4.552938720703125 2.0375999999999994 4.557438720703125 2.0420999999999996 Q 4.561938720703124 2.0465999999999998 4.561938720703124 2.0548499999999996 L 4.561938720703124 2.0840999999999994 Q 4.561938720703124 2.0915999999999997 4.557438720703125 2.0964749999999994 Q 4.552938720703125 2.1013499999999996 4.544688720703125 2.1013499999999996 L 4.228938720703124 2.1013499999999996 M 4.8510629882812495 2.1088499999999994 Q 4.7820629882812495 2.1088499999999994 4.73668798828125 2.08335 Q 4.69131298828125 2.0578499999999997 4.66806298828125 2.0120999999999998 Q 4.64481298828125 1.9663499999999996 4.64256298828125 1.9055999999999995 Q 4.6418129882812496 1.8748499999999997 4.6418129882812496 1.8395999999999997 Q 4.6418129882812496 1.8043499999999997 4.64256298828125 1.7720999999999996 Q 4.64481298828125 1.7113499999999995 4.66806298828125 1.6655999999999995 Q 4.69131298828125 1.6198499999999996 4.73668798828125 1.5943499999999995 Q 4.7820629882812495 1.5688499999999996 4.8510629882812495 1.5688499999999996 Q 4.90281298828125 1.5688499999999996 4.941812988281249 1.5830999999999995 Q 4.98081298828125 1.5973499999999996 5.00668798828125 1.6213499999999996 Q 5.032562988281249 1.6453499999999996 5.04606298828125 1.6749749999999997 Q 5.059562988281249 1.7045999999999997 5.0610629882812495 1.7360999999999995 Q 5.0618129882812495 1.7428499999999996 5.056937988281249 1.7473499999999995 Q 5.05206298828125 1.7518499999999997 5.04531298828125 1.7518499999999997 L 5.00406298828125 1.7518499999999997 Q 4.99731298828125 1.7518499999999997 4.9924379882812495 1.7480999999999995 Q 4.987562988281249 1.7443499999999996 4.985312988281249 1.7345999999999995 Q 4.97256298828125 1.6760999999999995 4.937687988281249 1.6543499999999995 Q 4.90281298828125 1.6325999999999996 4.8510629882812495 1.6325999999999996 Q 4.79031298828125 1.6325999999999996 4.755062988281249 1.6667249999999996 Q 4.71981298828125 1.7008499999999995 4.71756298828125 1.7758499999999997 Q 4.71531298828125 1.8373499999999996 4.71756298828125 1.9018499999999996 Q 4.71981298828125 1.9768499999999996 4.755062988281249 2.0109749999999997 Q 4.79031298828125 2.0450999999999997 4.8510629882812495 2.0450999999999997 Q 4.90281298828125 2.0450999999999997 4.937687988281249 2.0233499999999998 Q 4.97256298828125 2.0016 4.985312988281249 1.9430999999999996 Q 4.987562988281249 1.9333499999999997 4.9924379882812495 1.9295999999999995 Q 4.99731298828125 1.9258499999999996 5.00406298828125 1.9258499999999996 L 5.04531298828125 1.9258499999999996 Q 5.05206298828125 1.9258499999999996 5.056937988281249 1.9299749999999996 Q 5.0618129882812495 1.9340999999999995 5.0610629882812495 1.9408499999999995 Q 5.059562988281249 1.9723499999999996 5.04606298828125 2.0023499999999994 Q 5.032562988281249 2.0323499999999997 5.00668798828125 2.0563499999999997 Q 4.98081298828125 2.0803499999999997 4.941812988281249 2.0946 Q 4.90281298828125 2.1088499999999994 4.8510629882812495 2.1088499999999994 M 5.179949707031249 2.1013499999999996 Q 5.17169970703125 2.1013499999999996 5.16719970703125 2.0964749999999994 Q 5.1626997070312495 2.0915999999999997 5.1626997070312495 2.0840999999999994 L 5.1626997070312495 1.5943499999999995 Q 5.1626997070312495 1.5860999999999996 5.16719970703125 1.5812249999999994 Q 5.17169970703125 1.5763499999999997 5.179949707031249 1.5763499999999997 L 5.21819970703125 1.5763499999999997 Q 5.22644970703125 1.5763499999999997 5.231324707031249 1.5812249999999994 Q 5.23619970703125 1.5860999999999996 5.23619970703125 1.5943499999999995 L 5.23619970703125 1.8013499999999996 L 5.49419970703125 1.8013499999999996 L 5.49419970703125 1.5943499999999995 Q 5.49419970703125 1.5860999999999996 5.49907470703125 1.5812249999999994 Q 5.50394970703125 1.5763499999999997 5.511449707031249 1.5763499999999997 L 5.54969970703125 1.5763499999999997 Q 5.557949707031249 1.5763499999999997 5.5628247070312495 1.5812249999999994 Q 5.56769970703125 1.5860999999999996 5.56769970703125 1.5943499999999995 L 5.56769970703125 2.0840999999999994 Q 5.56769970703125 2.0915999999999997 5.5628247070312495 2.0964749999999994 Q 5.557949707031249 2.1013499999999996 5.54969970703125 2.1013499999999996 L 5.511449707031249 2.1013499999999996 Q 5.50394970703125 2.1013499999999996 5.49907470703125 2.0964749999999994 Q 5.49419970703125 2.0915999999999997 5.49419970703125 2.0840999999999994 L 5.49419970703125 1.8688499999999997 L 5.23619970703125 1.8688499999999997 L 5.23619970703125 2.0840999999999994 Q 5.23619970703125 2.0915999999999997 5.231324707031249 2.0964749999999994 Q 5.22644970703125 2.1013499999999996 5.21819970703125 2.1013499999999996 L 5.179949707031249 2.1013499999999996 M 6.05293798828125 2.1088499999999994 Q 5.98768798828125 2.1088499999999994 5.94343798828125 2.0885999999999996 Q 5.89918798828125 2.0683499999999997 5.87556298828125 2.036475 Q 5.85193798828125 2.0045999999999995 5.85043798828125 1.9693499999999995 Q 5.85043798828125 1.9633499999999997 5.855312988281249 1.9584749999999995 Q 5.8601879882812495 1.9535999999999996 5.86693798828125 1.9535999999999996 L 5.9051879882812495 1.9535999999999996 Q 5.91418798828125 1.9535999999999996 5.91868798828125 1.9580999999999995 Q 5.92318798828125 1.9625999999999997 5.924687988281249 1.9685999999999997 Q 5.9291879882812495 1.9865999999999997 5.94343798828125 2.0042249999999995 Q 5.95768798828125 2.0218499999999997 5.98431298828125 2.0334749999999997 Q 6.01093798828125 2.0450999999999997 6.05293798828125 2.0450999999999997 Q 6.1174379882812495 2.0450999999999997 6.14781298828125 2.0222249999999997 Q 6.17818798828125 1.9993499999999995 6.17818798828125 1.9610999999999996 Q 6.17818798828125 1.9348499999999995 6.162062988281249 1.9187249999999996 Q 6.14593798828125 1.9025999999999996 6.112937988281249 1.8898499999999996 Q 6.07993798828125 1.8770999999999995 6.02743798828125 1.8620999999999996 Q 5.972687988281249 1.8463499999999997 5.93668798828125 1.8275999999999997 Q 5.90068798828125 1.8088499999999996 5.8830629882812495 1.7810999999999997 Q 5.86543798828125 1.7533499999999995 5.86543798828125 1.7105999999999997 Q 5.86543798828125 1.6700999999999997 5.88718798828125 1.6382249999999996 Q 5.90893798828125 1.6063499999999995 5.950187988281249 1.5875999999999997 Q 5.99143798828125 1.5688499999999996 6.04918798828125 1.5688499999999996 Q 6.09568798828125 1.5688499999999996 6.13056298828125 1.5812249999999994 Q 6.16543798828125 1.5935999999999995 6.1886879882812496 1.6142249999999996 Q 6.2119379882812495 1.6348499999999997 6.22393798828125 1.6584749999999997 Q 6.23593798828125 1.6820999999999997 6.23668798828125 1.7045999999999997 Q 6.23668798828125 1.7098499999999996 6.2329379882812495 1.7147249999999996 Q 6.22918798828125 1.7195999999999996 6.22093798828125 1.7195999999999996 L 6.18118798828125 1.7195999999999996 Q 6.17593798828125 1.7195999999999996 6.17031298828125 1.7165999999999997 Q 6.1646879882812495 1.7135999999999996 6.161687988281249 1.7053499999999997 Q 6.15718798828125 1.6745999999999996 6.12718798828125 1.6535999999999995 Q 6.09718798828125 1.6325999999999996 6.04918798828125 1.6325999999999996 Q 6.0004379882812495 1.6325999999999996 5.97006298828125 1.6513499999999997 Q 5.93968798828125 1.6700999999999997 5.93968798828125 1.7098499999999996 Q 5.93968798828125 1.7353499999999995 5.9539379882812495 1.7522249999999997 Q 5.96818798828125 1.7690999999999997 5.9989379882812495 1.7818499999999995 Q 6.02968798828125 1.7945999999999995 6.07918798828125 1.8088499999999996 Q 6.1391879882812495 1.8253499999999996 6.17743798828125 1.8437249999999996 Q 6.21568798828125 1.8620999999999996 6.2340629882812495 1.8894749999999996 Q 6.252437988281249 1.9168499999999997 6.252437988281249 1.9595999999999996 Q 6.252437988281249 2.0068499999999996 6.22768798828125 2.0402249999999995 Q 6.20293798828125 2.0735999999999994 6.158312988281249 2.0912249999999997 Q 6.113687988281249 2.1088499999999994 6.05293798828125 2.1088499999999994 M 6.5498199462890625 2.1088499999999994 Q 6.486819946289062 2.1088499999999994 6.441444946289062 2.0863499999999995 Q 6.396069946289062 2.0638499999999995 6.371694946289062 2.0177249999999995 Q 6.347319946289062 1.9715999999999996 6.347319946289062 1.8988499999999995 L 6.347319946289062 1.5943499999999995 Q 6.347319946289062 1.5860999999999996 6.351819946289062 1.5812249999999994 Q 6.356319946289062 1.5763499999999997 6.364569946289063 1.5763499999999997 L 6.402819946289062 1.5763499999999997 Q 6.411069946289063 1.5763499999999997 6.415944946289062 1.5812249999999994 Q 6.420819946289062 1.5860999999999996 6.420819946289062 1.5943499999999995 L 6.420819946289062 1.9003499999999995 Q 6.420819946289062 1.9738499999999997 6.4553199462890625 2.0090999999999997 Q 6.489819946289062 2.0443499999999997 6.5498199462890625 2.0443499999999997 Q 6.609069946289062 2.0443499999999997 6.6439449462890625 2.0090999999999997 Q 6.678819946289062 1.9738499999999997 6.678819946289062 1.9003499999999995 L 6.678819946289062 1.5943499999999995 Q 6.678819946289062 1.5860999999999996 6.683694946289062 1.5812249999999994 Q 6.688569946289062 1.5763499999999997 6.696069946289063 1.5763499999999997 L 6.735069946289062 1.5763499999999997 Q 6.742569946289063 1.5763499999999997 6.747444946289062 1.5812249999999994 Q 6.752319946289062 1.5860999999999996 6.752319946289062 1.5943499999999995 L 6.752319946289062 1.8988499999999995 Q 6.752319946289062 1.9715999999999996 6.727944946289062 2.0177249999999995 Q 6.703569946289062 2.0638499999999995 6.658569946289062 2.0863499999999995 Q 6.613569946289062 2.1088499999999994 6.5498199462890625 2.1088499999999994 M 6.895936523437499 2.1013499999999996 Q 6.8876865234375 2.1013499999999996 6.8831865234375 2.0964749999999994 Q 6.8786865234375 2.0915999999999997 6.8786865234375 2.0840999999999994 L 6.8786865234375 1.5943499999999995 Q 6.8786865234375 1.5860999999999996 6.8831865234375 1.5812249999999994 Q 6.8876865234375 1.5763499999999997 6.895936523437499 1.5763499999999997 L 7.0864365234374995 1.5763499999999997 Q 7.1419365234375 1.5763499999999997 7.1828115234375 1.5943499999999995 Q 7.2236865234375 1.6123499999999997 7.2461865234375 1.6479749999999995 Q 7.2686865234375 1.6835999999999995 7.2686865234375 1.7368499999999996 Q 7.2686865234375 1.7900999999999996 7.2461865234375 1.8253499999999996 Q 7.2236865234375 1.8605999999999996 7.1828115234375 1.8785999999999996 Q 7.1419365234375 1.8965999999999996 7.0864365234374995 1.8965999999999996 L 6.9536865234375 1.8965999999999996 L 6.9536865234375 2.0840999999999994 Q 6.9536865234375 2.0915999999999997 6.9488115234375 2.0964749999999994 Q 6.9439365234374995 2.1013499999999996 6.9356865234375 2.1013499999999996 L 6.895936523437499 2.1013499999999996 M 6.9529365234375 1.8335999999999997 L 7.0826865234375 1.8335999999999997 Q 7.1381865234375 1.8335999999999997 7.1659365234375 1.8088499999999996 Q 7.1936865234375 1.7840999999999996 7.1936865234375 1.7368499999999996 Q 7.1936865234375 1.6903499999999996 7.1666865234375 1.6648499999999995 Q 7.1396865234375 1.6393499999999996 7.0826865234375 1.6393499999999996 L 6.9529365234375 1.6393499999999996 L 6.9529365234375 1.8335999999999997 M 7.378583129882812 2.1013499999999996 Q 7.3703331298828125 2.1013499999999996 7.365833129882812 2.0964749999999994 Q 7.361333129882812 2.0915999999999997 7.361333129882812 2.0840999999999994 L 7.361333129882812 1.5943499999999995 Q 7.361333129882812 1.5860999999999996 7.365833129882812 1.5812249999999994 Q 7.3703331298828125 1.5763499999999997 7.378583129882812 1.5763499999999997 L 7.569083129882812 1.5763499999999997 Q 7.624583129882812 1.5763499999999997 7.665458129882812 1.5943499999999995 Q 7.706333129882813 1.6123499999999997 7.728833129882813 1.6479749999999995 Q 7.751333129882813 1.6835999999999995 7.751333129882813 1.7368499999999996 Q 7.751333129882813 1.7900999999999996 7.728833129882813 1.8253499999999996 Q 7.706333129882813 1.8605999999999996 7.665458129882812 1.8785999999999996 Q 7.624583129882812 1.8965999999999996 7.569083129882812 1.8965999999999996 L 7.436333129882812 1.8965999999999996 L 7.436333129882812 2.0840999999999994 Q 7.436333129882812 2.0915999999999997 7.431458129882812 2.0964749999999994 Q 7.426583129882812 2.1013499999999996 7.418333129882813 2.1013499999999996 L 7.378583129882812 2.1013499999999996 M 7.435583129882812 1.8335999999999997 L 7.565333129882813 1.8335999999999997 Q 7.620833129882812 1.8335999999999997 7.648583129882812 1.8088499999999996 Q 7.676333129882813 1.7840999999999996 7.676333129882813 1.7368499999999996 Q 7.676333129882813 1.6903499999999996 7.649333129882812 1.6648499999999995 Q 7.622333129882812 1.6393499999999996 7.565333129882813 1.6393499999999996 L 7.435583129882812 1.6393499999999996 L 7.435583129882812 1.8335999999999997 M 8.032979736328125 2.1088499999999994 Q 7.968479736328125 2.1088499999999994 7.922729736328125 2.0867249999999995 Q 7.876979736328125 2.0645999999999995 7.852229736328125 2.0184749999999996 Q 7.827479736328125 1.9723499999999996 7.824479736328125 1.9025999999999996 Q 7.823729736328125 1.8695999999999997 7.823729736328125 1.8392249999999997 Q 7.823729736328125 1.8088499999999996 7.824479736328125 1.7758499999999997 Q 7.827479736328125 1.7068499999999995 7.853354736328125 1.6607249999999996 Q 7.879229736328125 1.6145999999999996 7.925354736328125 1.5917249999999996 Q 7.971479736328125 1.5688499999999996 8.032979736328125 1.5688499999999996 Q 8.093729736328125 1.5688499999999996 8.139854736328125 1.5917249999999996 Q 8.185979736328125 1.6145999999999996 8.212229736328124 1.6607249999999996 Q 8.238479736328125 1.7068499999999995 8.240729736328126 1.7758499999999997 Q 8.242229736328126 1.8088499999999996 8.242229736328126 1.8392249999999997 Q 8.242229736328126 1.8695999999999997 8.240729736328126 1.9025999999999996 Q 8.238479736328125 1.9723499999999996 8.213354736328125 2.0184749999999996 Q 8.188229736328125 2.0645999999999995 8.142479736328125 2.0867249999999995 Q 8.096729736328125 2.1088499999999994 8.032979736328125 2.1088499999999994 M 8.032979736328125 2.0450999999999997 Q 8.089979736328125 2.0450999999999997 8.126354736328125 2.0105999999999997 Q 8.162729736328124 1.9760999999999995 8.165729736328124 1.8988499999999995 Q 8.167229736328125 1.8650999999999995 8.167229736328125 1.8384749999999996 Q 8.167229736328125 1.8118499999999997 8.165729736328124 1.7788499999999996 Q 8.164229736328124 1.7270999999999996 8.146604736328126 1.6948499999999995 Q 8.128979736328125 1.6625999999999996 8.099729736328126 1.6475999999999997 Q 8.070479736328124 1.6325999999999996 8.032979736328125 1.6325999999999996 Q 7.995479736328125 1.6325999999999996 7.966229736328125 1.6475999999999997 Q 7.936979736328125 1.6625999999999996 7.919354736328125 1.6948499999999995 Q 7.901729736328125 1.7270999999999996 7.899479736328125 1.7788499999999996 Q 7.898729736328125 1.8118499999999997 7.898729736328125 1.8384749999999996 Q 7.898729736328125 1.8650999999999995 7.899479736328125 1.8988499999999995 Q 7.902479736328125 1.9760999999999995 7.939229736328125 2.0105999999999997 Q 7.975979736328125 2.0450999999999997 8.032979736328125 2.0450999999999997 M 8.370106201171874 2.1013499999999996 Q 8.361856201171873 2.1013499999999996 8.357356201171875 2.0964749999999994 Q 8.352856201171875 2.0915999999999997 8.352856201171875 2.0840999999999994 L 8.352856201171875 1.5943499999999995 Q 8.352856201171875 1.5860999999999996 8.357356201171875 1.5812249999999994 Q 8.361856201171873 1.5763499999999997 8.370106201171874 1.5763499999999997 L 8.553106201171873 1.5763499999999997 Q 8.637856201171875 1.5763499999999997 8.687356201171873 1.6160999999999996 Q 8.736856201171873 1.6558499999999996 8.736856201171873 1.7338499999999997 Q 8.736856201171873 1.7915999999999996 8.707981201171874 1.8279749999999997 Q 8.679106201171875 1.8643499999999995 8.629606201171875 1.8785999999999996 L 8.745106201171874 2.0780999999999996 Q 8.747356201171874 2.0826 8.747356201171874 2.0863499999999995 Q 8.747356201171874 2.0923499999999997 8.742481201171874 2.0968499999999994 Q 8.737606201171873 2.1013499999999996 8.731606201171875 2.1013499999999996 L 8.695606201171874 2.1013499999999996 Q 8.682856201171875 2.1013499999999996 8.676856201171875 2.0946 Q 8.670856201171874 2.0878499999999995 8.666356201171874 2.0810999999999997 L 8.557606201171874 1.8905999999999996 L 8.426356201171874 1.8905999999999996 L 8.426356201171874 2.0840999999999994 Q 8.426356201171874 2.0915999999999997 8.421481201171874 2.0964749999999994 Q 8.416606201171874 2.1013499999999996 8.408356201171873 2.1013499999999996 L 8.370106201171874 2.1013499999999996 M 8.426356201171874 1.8268499999999996 L 8.550106201171873 1.8268499999999996 Q 8.606356201171874 1.8268499999999996 8.634106201171875 1.8032249999999996 Q 8.661856201171874 1.7795999999999996 8.661856201171874 1.7330999999999996 Q 8.661856201171874 1.6873499999999995 8.634481201171875 1.6633499999999997 Q 8.607106201171874 1.6393499999999996 8.550106201171873 1.6393499999999996 L 8.426356201171874 1.6393499999999996 L 8.426356201171874 1.8268499999999996 M 8.971256469726562 2.1013499999999996 Q 8.963756469726562 2.1013499999999996 8.958881469726562 2.0964749999999994 Q 8.954006469726561 2.0915999999999997 8.954006469726561 2.0840999999999994 L 8.954006469726561 1.6430999999999996 L 8.810006469726561 1.6430999999999996 Q 8.802506469726561 1.6430999999999996 8.79763146972656 1.6382249999999996 Q 8.792756469726562 1.6333499999999996 8.792756469726562 1.6258499999999996 L 8.792756469726562 1.5943499999999995 Q 8.792756469726562 1.5860999999999996 8.79763146972656 1.5812249999999994 Q 8.802506469726561 1.5763499999999997 8.810006469726561 1.5763499999999997 L 9.171506469726562 1.5763499999999997 Q 9.179756469726561 1.5763499999999997 9.184631469726561 1.5812249999999994 Q 9.189506469726561 1.5860999999999996 9.189506469726561 1.5943499999999995 L 9.189506469726561 1.6258499999999996 Q 9.189506469726561 1.6333499999999996 9.184631469726561 1.6382249999999996 Q 9.179756469726561 1.6430999999999996 9.171506469726562 1.6430999999999996 L 9.028256469726562 1.6430999999999996 L 9.028256469726562 2.0840999999999994 Q 9.028256469726562 2.0915999999999997 9.023381469726562 2.0964749999999994 Q 9.018506469726562 2.1013499999999996 9.010256469726562 2.1013499999999996 L 8.971256469726562 2.1013499999999996" fill="#64c6c4" fill-rule="nonzero"></path></g><g clip-path="url(#SvgjsClipPath1001)"><g clip-path="url(#SvgjsClipPath1000432e1bea-963a-43cd-9e10-7bf8c0e0471d)"><path d=" M 3.515972001575771 -2.573586066016537 L 4.604054074960567 -3.6614402758857616 L 5.691908284829792 -2.573358202500965 L 4.603826211444996 -1.4855039926317408 Z" fill="#a4cb6a" transform="matrix(1,0,0,1,0,0)" fill-rule="nonzero"></path></g><g clip-path="url(#SvgjsClipPath1000432e1bea-963a-43cd-9e10-7bf8c0e0471d)"><path d=" M 4.040950821843653 -4.198284618049364 L 2.4162176032215257 -2.5735513994272368 L 4.010468022244739 -0.980063050393996 L 3.2804049718507433 -0.25 L 3.265925642041259 -0.26371725981951144 L 1.6861545528275301 -1.8434883490332412 L 1.6419544934091044 -1.888450478441639 C 1.2776850382020797 -2.2517038403287004 1.1582940731063323 -2.559580116277734 1.2837815981218625 -2.81207930628874 C 1.3496524482534438 -2.9399192184809397 1.436457732101541 -3.055831318574839 1.5405991847427132 -3.155010801776523 L 3.3108877714496576 -4.92834766844336 Z" fill="#212245" transform="matrix(1,0,0,1,0,0)" fill-rule="evenodd"></path></g><g clip-path="url(#SvgjsClipPath1000432e1bea-963a-43cd-9e10-7bf8c0e0471d)"><path d=" M 5.1672902670235334 -4.198284618049364 L 6.792023485645661 -2.5735513994272368 L 5.198535136612421 -0.980063050393996 L 5.928598187006417 -0.25 L 5.9430775168159 -0.26371725981951144 L 7.522086536039657 -1.8434883490332412 L 7.566286595458082 -1.888450478441639 C 7.930556050665107 -2.2517038403287004 8.049947015760857 -2.559580116277734 7.924459490745325 -2.81207930628874 C 7.859510082707833 -2.9396950078772655 7.77374531858608 -3.0555933377715254 7.670690184084366 -3.155010801776525 L 5.897353317417529 -4.92834766844336 Z" fill="#64c6c4" transform="matrix(1,0,0,1,0,0)" fill-rule="evenodd"></path></g></g></g><defs><clipPath id="SvgjsClipPath1001"><path d=" M 1.2357711887535725 -4.92834766844336 h 6.736698711360042 v 4.67834766844336 h -6.736698711360042 Z"></path></clipPath><clipPath id="SvgjsClipPath1000432e1bea-963a-43cd-9e10-7bf8c0e0471d"><path d=" M 1.2357711887535725 -4.92834766844336 L 7.972469900113614 -4.92834766844336 L 7.972469900113614 -0.25 L 1.2357711887535725 -0.25 Z"></path></clipPath></defs></svg>