<?xml version="1.0" encoding="UTF-8"?>
<svg version="1.1" xmlns="http://www.w3.org/2000/svg" width="1510" height="405">
<path d="M0 0 C15.84 0 31.68 0 48 0 C48.0093457 4.05176514 48.01869141 8.10353027 48.02832031 12.27807617 C48.06214844 25.69315791 48.1175309 39.10807891 48.18390274 52.523036 C48.22360562 60.65329987 48.25604233 68.78346818 48.27099609 76.91381836 C48.28405823 84.00544478 48.31113823 91.09686015 48.35461307 98.18836766 C48.37712611 101.93859494 48.39291685 105.68856292 48.39188385 109.43886375 C48.39113115 112.9791501 48.40932212 116.51886547 48.44116783 120.05900383 C48.45355809 121.95656244 48.44665055 123.85421748 48.43885803 125.75180054 C48.61420733 140.39946394 53.14705702 153.05905505 63.25 163.75 C73.07435578 172.98782708 85.00049792 177.72267742 98.5 178.5 C109.46077075 177.86886157 120.15480162 174.46836964 129 168 C130.051875 167.2575 131.10375 166.515 132.1875 165.75 C141.53072817 156.61439912 147.49542689 144.30145898 148.1386652 131.16898537 C148.14511775 130.18635405 148.1515703 129.20372272 148.15821838 128.1913147 C148.1680072 127.05557007 148.17779602 125.91982544 148.18788147 124.74966431 C148.19363693 123.518237 148.1993924 122.28680969 148.20532227 121.01806641 C148.21522186 119.71021179 148.22512146 118.40235718 148.23532104 117.05487061 C148.26226524 113.480979 148.28333128 109.90707434 148.30332303 106.33313799 C148.32524757 102.5935178 148.35260451 98.8539374 148.37937927 95.11434937 C148.42921894 88.03846073 148.47419 80.9625499 148.51740164 73.88661802 C148.56684876 65.82856483 148.62173908 57.77055157 148.67708123 49.71253705 C148.79076726 33.14172691 148.89691676 16.57088 149 0 C164.84 0 180.68 0 197 0 C197.04415362 28.68015367 197.08105777 57.36028149 197.10213066 86.04046074 C197.10463185 89.43224733 197.10722051 92.82403384 197.10986328 96.21582031 C197.1103879 96.89101752 197.11091252 97.56621473 197.11145304 98.26187246 C197.12013768 109.17115573 197.13589688 120.08041776 197.15430559 130.98968847 C197.1730588 142.19721618 197.18397861 153.40473667 197.18817699 164.61228025 C197.19077823 170.90164291 197.19686762 177.1909575 197.21146011 183.48030472 C197.22510124 189.40800919 197.22920948 195.33564611 197.22621536 201.26336479 C197.22676261 203.43121521 197.23070092 205.59906805 197.23841095 207.76690483 C197.34820937 240.25038873 190.15324828 267.04484742 167.03515625 291.08203125 C149.42352426 308.54377701 124.54195044 318 100 318 C100 302.16 100 286.32 100 270 C104.62 269.01 109.24 268.02 114 267 C127.63158757 261.74337473 137.39365956 254.10308174 143.515625 240.67578125 C146.40004501 233.40671128 148.1583271 226.98282217 148.0625 219.125 C148.05347656 218.15820312 148.04445313 217.19140625 148.03515625 216.1953125 C148.02355469 215.47085938 148.01195312 214.74640625 148 214 C147.07960938 214.45890625 146.15921875 214.9178125 145.2109375 215.390625 C119.55384244 227.93705733 91.59111552 230.56998211 64.27734375 221.609375 C52.77048805 217.48862299 41.99247631 211.28095041 33 203 C32.11054687 202.20207031 31.22109375 201.40414062 30.3046875 200.58203125 C12.64225119 183.92817417 0.65761042 159.54399803 -0.08940315 135.07106018 C-0.12286967 131.52158627 -0.12364069 127.97344796 -0.11352539 124.42382812 C-0.1132429 123.06305951 -0.11340247 121.70229074 -0.1139679 120.34152222 C-0.11425344 116.66854584 -0.10839614 112.99560248 -0.10139394 109.32263374 C-0.0951198 105.47628067 -0.0945534 101.62992674 -0.09336853 97.78356934 C-0.09026715 90.50938882 -0.08206991 83.23522343 -0.07201904 75.96104956 C-0.06082076 67.67565497 -0.05533811 59.39025963 -0.05032361 51.10485935 C-0.03988625 34.069896 -0.02155568 17.03495347 0 0 Z " fill="#4169E1" transform="translate(679,87)"/>
<path d="M0 0 C17.71688466 15.23641032 30.05724218 32.92485654 37.56640625 55.1015625 C37.80512451 55.80563232 38.04384277 56.50970215 38.28979492 57.23510742 C41.52767807 67.33051091 42.48464278 77.12926839 42.41845703 87.69604492 C42.41874908 88.93635468 42.41904114 90.17666443 42.41934204 91.45455933 C42.41819636 94.81960212 42.40824142 98.18439237 42.39419413 101.54939055 C42.38159915 105.07941283 42.38050942 108.60943931 42.37814331 112.13948059 C42.37195409 118.80797275 42.35557831 125.47639847 42.33544433 132.14486152 C42.31300519 139.74351162 42.30207185 147.34216508 42.29205346 154.94084013 C42.27120948 170.55695915 42.23456567 186.17298679 42.19140625 201.7890625 C26.68140625 201.7890625 11.17140625 201.7890625 -4.80859375 201.7890625 C-5.13859375 196.5090625 -5.46859375 191.2290625 -5.80859375 185.7890625 C-6.81535156 186.42972656 -7.82210938 187.07039062 -8.859375 187.73046875 C-27.04834536 199.02795227 -46.28204008 205.74850401 -67.80859375 206.7890625 C-68.64132812 206.8303125 -69.4740625 206.8715625 -70.33203125 206.9140625 C-98.11948871 207.58162905 -125.29118772 198.34970075 -146.80859375 180.7890625 C-147.33001953 180.36399414 -147.85144531 179.93892578 -148.38867188 179.50097656 C-171.04469355 160.65876579 -185.64591514 133.0725686 -188.80859375 103.7890625 C-191.02411552 70.73020305 -183.18417499 39.75462207 -161.20263672 14.36621094 C-120.59910405 -31.57053531 -48.07109068 -39.7053354 0 0 Z M-124.80859375 45.7890625 C-138.23075869 62.07857759 -142.24214639 80.12668366 -140.80859375 100.7890625 C-138.86057849 115.75731724 -131.41394848 128.34493782 -120.80859375 138.7890625 C-120.08671875 139.50964844 -119.36484375 140.23023438 -118.62109375 140.97265625 C-105.92376651 152.96709573 -88.25474201 159.45694589 -70.8125 159.03515625 C-51.20297803 157.42865445 -34.85582256 149.63646264 -21.43359375 135.4140625 C-9.66432515 121.21660796 -3.30906046 103.21400227 -4.99707031 84.72460938 C-7.28557655 66.22512552 -15.52816009 49.89808775 -29.80859375 37.7890625 C-59.33647211 14.76903333 -99.51131667 18.50768525 -124.80859375 45.7890625 Z " fill="#4169E1" transform="translate(1193.80859375,107.2109375)"/>
<path d="M0 0 C27.46429565 23.22405737 46.61203682 53.66652893 49.7578125 90.33203125 C50.43930951 104.87459625 50.12089057 119.13494282 46.7578125 133.33203125 C46.59152344 134.03730957 46.42523438 134.74258789 46.25390625 135.46923828 C39.39701168 163.39838572 23.06101444 184.3549634 3.03979492 204.30883789 C1.67510416 205.67624443 0.31083799 207.04407482 -1.05303955 208.41229248 C-4.72776762 212.09607091 -8.40871177 215.77357665 -12.09115052 219.44964528 C-15.95331697 223.30672064 -19.81057034 227.16870449 -23.66862488 231.02989197 C-30.13836803 237.50326268 -36.61229269 243.97242897 -43.08862305 250.43920898 C-50.57642493 257.91609643 -58.05695142 265.4002049 -65.53380281 272.88804156 C-71.96428543 279.3275932 -78.39864838 285.76324814 -84.83628577 292.19564718 C-88.67697317 296.03321691 -92.51629705 299.87212456 -96.35212135 303.71455574 C-99.95177719 307.3199799 -103.55627314 310.92049349 -107.16459656 314.51724243 C-108.48857784 315.83857577 -109.81085374 317.16162039 -111.1313076 318.48647881 C-112.93121134 320.29183316 -114.73713852 322.09093701 -116.54475403 323.88856506 C-117.32933108 324.67983428 -117.32933108 324.67983428 -118.12975818 325.48708874 C-122.71499477 330.02318027 -125.67571393 331.62507866 -132.1171875 331.70703125 C-137.32735518 331.6119552 -140.30640314 330.97263178 -144.2421875 327.33203125 C-147.76854181 323.42444945 -149.37768076 320.40815285 -149.5546875 315.14453125 C-149.59207031 314.42910156 -149.62945312 313.71367187 -149.66796875 312.9765625 C-148.55908909 306.08930075 -144.42338426 300.92537946 -139.55148315 296.19395447 C-138.98750733 295.63008878 -138.42353152 295.06622309 -137.84246552 294.48527056 C-135.96665666 292.61454552 -134.07698633 290.75850338 -132.18701172 288.90209961 C-130.83230885 287.55671959 -129.47852707 286.21041157 -128.12559509 284.86325073 C-125.21691973 281.97057187 -122.30219998 279.08417593 -119.38268661 276.20243645 C-114.75587088 271.63470066 -110.14507438 267.05101876 -105.53665161 262.46473694 C-94.08331148 251.07135064 -82.60920189 239.69894049 -71.13079834 228.33081055 C-62.21620529 219.50140248 -53.30755886 210.66615998 -44.41597188 201.81357676 C-39.84669587 197.26564265 -35.26591054 192.72974618 -30.67571712 188.20292938 C-27.80572921 185.36736697 -24.94647585 182.52115878 -22.08989143 179.67210007 C-20.77623617 178.3661238 -19.45833067 177.06440457 -18.13559151 175.76762962 C2.04805985 155.96633683 14.53020243 132.34999935 15.0703125 103.58203125 C15.09698095 77.01136908 4.10402257 53.21067647 -14.1171875 34.14453125 C-32.48281273 16.41832817 -58.04430243 7.66611605 -83.28515625 8.08203125 C-114.49535859 10.05385055 -136.55985954 25.25989592 -157.88012695 46.79052734 C-159.21144044 48.12732839 -160.54322596 49.46365947 -161.8754425 50.79956055 C-164.72263903 53.65640145 -167.56674468 56.51627045 -170.40847206 59.37855148 C-174.90385488 63.90595925 -179.40757542 68.42501185 -183.91264343 72.94277954 C-195.09197194 84.15606123 -206.26180524 95.37878811 -217.42694092 106.60620117 C-226.12449451 115.35221713 -234.82522353 124.09501449 -243.53654832 132.82731688 C-248.01460594 137.31688558 -252.48563492 141.81330257 -256.951491 146.31500697 C-259.72763353 149.11034221 -262.51001413 151.89940274 -265.29417229 154.68675232 C-266.58275337 155.97935089 -267.86874872 157.27453315 -269.15193939 158.57248306 C-270.90494525 160.34492174 -272.66701309 162.10784034 -274.43159485 163.8687439 C-274.93578345 164.38303526 -275.43997205 164.89732663 -275.9594391 165.42720258 C-279.716692 169.14726971 -283.50186932 171.90594519 -288.8046875 172.73046875 C-294.70408987 172.67374373 -299.27467512 172.28341585 -303.6796875 167.90234375 C-307.1747974 163.91076938 -308.40072184 160.80065672 -308.5546875 155.58203125 C-308.59207031 154.7621875 -308.62945312 153.94234375 -308.66796875 153.09765625 C-307.66193195 146.5630319 -303.13340474 141.78289498 -298.58512878 137.28729248 C-298.02468079 136.72145895 -297.4642328 136.15562542 -296.88680154 135.57264543 C-295.02036712 133.69198598 -293.14348012 131.82213513 -291.26635742 129.95214844 C-289.92005016 128.60013435 -288.57437342 127.24749215 -287.22927856 125.89427185 C-283.58076737 122.2278375 -279.92277461 118.57100475 -276.2624414 114.91637707 C-273.19867107 111.85570335 -270.13951214 108.79044113 -267.08030778 105.72520471 C-259.85276699 98.48361968 -252.61745547 91.2498644 -245.37719727 84.02099609 C-237.93569119 76.59093892 -230.50699475 69.14825313 -223.08465308 61.69905543 C-216.69253894 55.28468973 -210.29258755 48.87821769 -203.88641435 42.47789311 C-200.06923984 38.66407073 -196.25493885 34.84749049 -192.44811058 31.02333832 C-188.85952984 27.41914216 -185.26114266 23.82501691 -181.65542984 20.23796272 C-180.3440217 18.93020209 -179.03590508 17.61912973 -177.73161888 16.30426598 C-130.60049208 -31.17934609 -54.77141799 -43.55777113 0 0 Z " fill="#4169E1" transform="translate(318.2421875,44.66796875)"/>
<path d="M0 0 C1.66241871 1.39716707 3.30819617 2.81435352 4.9375 4.25 C5.76121094 4.96671875 6.58492187 5.6834375 7.43359375 6.421875 C15.0240223 13.47943415 23.71205412 23.80917662 25.9375 34.25 C25.0556604 34.8076001 25.0556604 34.8076001 24.15600586 35.37646484 C21.39449181 37.1241222 18.63465587 38.87440999 15.875 40.625 C14.87815186 41.25607666 13.88130371 41.88715332 12.85424805 42.53735352 C8.2748692 45.44667966 3.71511561 48.37030909 -0.7578125 51.44140625 C-1.44093506 51.90949707 -2.12405762 52.37758789 -2.82788086 52.85986328 C-4.08495696 53.72814473 -5.33608592 54.60511651 -6.58032227 55.49169922 C-8.26171875 56.65234375 -8.26171875 56.65234375 -11.0625 58.25 C-14.96843434 56.94802189 -15.47660218 55.36064504 -17.5625 51.875 C-19.52979108 48.60481001 -21.36804373 45.92802666 -24.0625 43.25 C-24.0625 42.59 -24.0625 41.93 -24.0625 41.25 C-24.63097656 40.97929687 -25.19945312 40.70859375 -25.78515625 40.4296875 C-28.13511934 39.21238243 -30.28261936 37.81835401 -32.5 36.375 C-46.99020682 27.83164107 -64.8870493 26.61319804 -81.15527344 30.67480469 C-87.51978525 32.59426063 -92.74951129 36.2631068 -97.0625 41.25 C-98.64148053 44.40796107 -98.88178171 47.85670636 -98.0625 51.25 C-85.78804304 66.14817917 -57.53553373 68.92451944 -39.75317383 73.28369141 C3.95434643 84.00530392 3.95434643 84.00530392 19.9375 100.25 C20.52273438 100.83652344 21.10796875 101.42304688 21.7109375 102.02734375 C31.81767009 112.92927611 34.77312258 127.40925348 34.28515625 141.87109375 C33.32438113 157.37779757 27.20508265 171.62980167 16.9375 183.25 C16.21949219 184.07371094 15.50148438 184.89742187 14.76171875 185.74609375 C-1.89261924 203.65427715 -27.04343883 209.83246955 -50.7265625 211.171875 C-84.42104398 211.96097293 -114.58422581 203.77325065 -139.5 180.1875 C-143.39637826 176.18619235 -146.82642229 171.88874388 -150.1875 167.4375 C-150.68564209 166.79095459 -151.18378418 166.14440918 -151.69702148 165.47827148 C-155.1114712 160.82187259 -155.1114712 160.82187259 -154.88598633 158.1887207 C-153.3999151 154.69008695 -149.76397196 153.15468075 -146.625 151.25 C-145.08503906 150.28659088 -143.54600931 149.32169203 -142.0078125 148.35546875 C-140.7997998 147.60209229 -140.7997998 147.60209229 -139.56738281 146.83349609 C-135.32733825 144.15309365 -131.16563691 141.35660127 -127 138.5625 C-126.20859619 138.03333984 -125.41719238 137.50417969 -124.60180664 136.95898438 C-122.75459019 135.723816 -120.90815575 134.48749866 -119.0625 133.25 C-115.16827173 135.01041148 -113.64369424 136.93139677 -111.25 140.5 C-101.97872328 153.57881762 -88.98094449 159.03224129 -73.33203125 161.71875 C-70.90260388 161.99684026 -68.50578211 162.15862522 -66.0625 162.25 C-65.23878906 162.28996094 -64.41507813 162.32992187 -63.56640625 162.37109375 C-47.6405263 162.77338195 -30.37538127 160.5648605 -18.125 149.5 C-15.88749522 144.76175459 -15.52755361 140.06881772 -17 135.0625 C-27.03894607 121.37302809 -47.84045151 119.08668599 -63.25 115.3125 C-86.44012138 109.623596 -86.44012138 109.623596 -97.03125 106.10546875 C-97.7284465 105.87416763 -98.42564301 105.64286652 -99.14396667 105.40455627 C-116.8673145 99.31858726 -135.71434329 88.8030346 -144.46484375 71.47265625 C-150.98574444 55.66933465 -148.92055814 39.24993166 -142.625 23.69921875 C-134.29640139 5.38030593 -118.79239668 -6.54417525 -100.36474609 -13.90429688 C-68.54292192 -25.5936711 -26.94973411 -20.84001178 0 0 Z " fill="#4169E1" transform="translate(1407.0625,102.75)"/>
<path d="M0 0 C15.50992901 13.17494439 25.07207604 30.56936132 27 51 C28.30146119 69.29017786 23.86356024 87.90173038 12.32987976 102.38705444 C11.85983637 102.97950529 11.38979297 103.57195615 10.90550584 104.18236005 C4.09762393 112.55830008 -3.64360968 120.07065119 -11.27807617 127.68212891 C-13.00129698 129.41106386 -14.72388978 131.14062492 -16.44590759 132.87075806 C-20.60755913 137.04838757 -24.77612434 141.21903362 -28.94840427 145.38604183 C-32.34015556 148.77372799 -35.72911594 152.16418288 -39.1161747 155.55656052 C-39.6008381 156.04197234 -40.08550151 156.52738417 -40.58485169 157.02750545 C-41.5697843 158.01396971 -42.55471356 159.00043732 -43.53963951 159.98690824 C-52.73756044 169.19849969 -61.944969 178.40056079 -71.15547881 187.59956233 C-79.57181319 196.00594234 -87.97661041 204.42374988 -96.37602004 212.84703775 C-105.02466564 221.52008304 -113.68068618 230.18570232 -122.34486562 238.84323061 C-127.19967688 243.69455515 -132.05160658 248.54867671 -136.895895 253.41051102 C-141.44450704 257.97539577 -146.0035489 262.52969229 -150.56971169 267.07702255 C-152.24207392 268.74569702 -153.9110422 270.417781 -155.57632446 272.09352112 C-157.85185575 274.38224816 -160.1393973 276.65826696 -162.43034363 278.93154907 C-163.08434448 279.59515493 -163.73834533 280.25876079 -164.41216439 280.94247591 C-169.43711461 285.88816778 -174.76402315 289.94971158 -182 290.5 C-187.85428262 290.16579883 -192.44927904 287.63024511 -196.4375 283.4375 C-198.65956528 279.97107817 -199.17553305 277.22733216 -199.25 273.1875 C-199.27578125 272.35605469 -199.3015625 271.52460938 -199.328125 270.66796875 C-198.44422768 263.48104172 -193.51675818 259.10636711 -188.61035156 254.28564453 C-187.86037903 253.53684021 -187.11040649 252.78803589 -186.33770752 252.01654053 C-183.86224784 249.5482549 -181.37644286 247.09066225 -178.890625 244.6328125 C-177.16217524 242.91250441 -175.43446379 241.19145422 -173.7074585 239.46969604 C-169.15945306 234.93880163 -164.60296041 230.41654389 -160.04418945 225.89648438 C-152.76002543 218.67151015 -145.48840992 211.43391323 -138.21752167 204.19558334 C-135.68391883 201.67586901 -133.14649453 199.16005479 -130.60845947 196.64480591 C-129.04129436 195.08767348 -127.4742124 193.53045736 -125.90722656 191.97314453 C-125.20774902 191.2819754 -124.50827148 190.59080627 -123.78759766 189.87869263 C-120.59258357 186.69797717 -117.5046048 183.47991854 -114.56112671 180.06410217 C-110.62002715 175.49782256 -106.38790475 171.25515601 -102.11474609 167.0012207 C-101.25368759 166.14001617 -100.39262909 165.27881165 -99.50547791 164.39151001 C-97.16652247 162.05312774 -94.82538504 159.7169728 -92.48321104 157.3818171 C-90.02138724 154.9262967 -87.56244488 152.46789408 -85.10317993 150.0098114 C-80.45063545 145.36036343 -75.79555154 140.71346677 -71.13952506 136.06750602 C-65.85518999 130.7943494 -60.57369222 125.51835494 -55.29243731 120.24211371 C-46.26129015 111.21963494 -37.22804415 102.19926312 -28.19239807 93.18128967 C-26.74686078 91.73855413 -25.30152735 90.29561427 -23.85645676 88.85241127 C-22.71126606 87.7097161 -21.56494178 86.56815412 -20.41676712 85.42845726 C-12.28530538 77.34725923 -8.27815926 68.68088675 -7.90625 57.07421875 C-8.55661919 45.57894332 -13.69108556 35.67070588 -21.86328125 27.67578125 C-31.55745932 20.07285183 -43.14938188 18.92241663 -55 20 C-61.07822123 21.46271409 -65.93410271 24.38150194 -71 28 C-72.11375 28.495 -72.11375 28.495 -73.25 29 C-75.13485825 29.85112884 -75.13485825 29.85112884 -75.78687859 31.7245512 C-77.41687103 34.78192396 -79.72147243 36.99387437 -82.15994263 39.40718079 C-82.69095231 39.94060488 -83.22196199 40.47402898 -83.76906288 41.02361745 C-85.54981211 42.81000267 -87.33762064 44.58914943 -89.12548828 46.3684082 C-90.40384965 47.64784254 -91.68177793 48.92770971 -92.95930481 50.20797729 C-96.4323128 53.68583667 -99.91154656 57.15740617 -103.39204645 60.62776589 C-107.03644951 64.26338415 -110.67557823 67.90427477 -114.31539917 71.54447937 C-120.43374982 77.66189299 -126.55596262 83.7754197 -132.68066406 89.88647461 C-139.75026663 96.94038287 -146.81466088 103.99947225 -153.87605298 111.06159908 C-161.40232252 118.58854585 -168.93240288 126.11167138 -176.46359396 133.63369346 C-178.62779399 135.79576767 -180.79128758 137.95854663 -182.95462418 140.12148476 C-186.36511032 143.53096127 -189.77815386 146.93785783 -193.19313622 150.34283066 C-194.44197825 151.58876807 -195.68999423 152.83553414 -196.93709373 154.08321571 C-202.62120031 159.7689702 -208.29517047 165.41262351 -214.41383934 170.63703251 C-216.41860321 172.35970036 -218.29341124 174.18650117 -220.14941406 176.06762695 C-220.85664612 176.78138992 -221.56387817 177.49515289 -222.2925415 178.23054504 C-223.02615906 178.97559799 -223.75977661 179.72065094 -224.515625 180.48828125 C-226.11184811 182.09713525 -227.70820616 183.70585537 -229.3046875 185.31445312 C-231.79065851 187.82534306 -234.27498608 190.33781945 -236.75683594 192.8527832 C-239.17207011 195.29814849 -241.59342818 197.73731529 -244.015625 200.17578125 C-245.12819672 201.3085424 -245.12819672 201.3085424 -246.26324463 202.46418762 C-247.30517975 203.51119087 -247.30517975 203.51119087 -248.36816406 204.5793457 C-248.97468811 205.19332718 -249.58121216 205.80730865 -250.20611572 206.43989563 C-254.60949468 210.26942401 -258.58042159 210.43328434 -264.2421875 210.3125 C-268.51565104 209.82825484 -270.58668262 208.64706246 -274 206 C-278.140345 200.66113407 -279.44939058 196.74085872 -279 190 C-276.92371191 183.64862022 -273.44386383 179.87370732 -268.74136353 175.22669983 C-267.99659897 174.47498975 -267.25183442 173.72327967 -266.48450124 172.94879049 C-263.99080274 170.43682204 -261.4830735 167.93935826 -258.97509766 165.44165039 C-257.18213929 163.64163335 -255.39002547 161.84077473 -253.59869385 160.03913879 C-249.2370617 155.65732864 -244.86609748 151.28502511 -240.49029775 146.91736824 C-236.93018562 143.36356496 -233.37382387 139.80604918 -229.8200798 136.24587822 C-229.3135732 135.73846996 -228.8070666 135.23106171 -228.28521132 134.70827745 C-227.25607681 133.67729164 -226.22694794 132.6463002 -225.19782464 131.61530321 C-215.54915191 121.95005674 -205.8878746 112.29748793 -196.22249179 102.64895593 C-187.39895898 93.8400964 -178.5901342 85.01669962 -169.78838475 76.18607873 C-160.73624667 67.10447126 -151.67484993 58.03220104 -142.60320318 48.97007936 C-141.57481409 47.94271275 -140.54643893 46.9153322 -139.51807785 45.88793755 C-139.01219578 45.38253187 -138.50631371 44.87712619 -137.98510189 44.35640519 C-134.43822072 40.81167948 -130.89732973 37.2610387 -127.35884476 33.70793343 C-122.58206205 28.91168934 -117.79215857 24.1289311 -112.99338531 19.35467339 C-111.24002973 17.60630567 -109.49086423 15.85372358 -107.74637222 14.09651184 C-78.17642005 -15.67182267 -35.95268319 -28.3663372 0 0 Z " fill="#4169E1" transform="translate(285,90)"/>
<path d="M0 0 C19.00925045 16.30307243 30.07184045 41.33025691 32 66 C32.13613961 70.50247723 32.12659197 75.00186593 32.11352539 79.50610352 C32.11324279 80.84731545 32.11340267 82.18852754 32.1139679 83.52973938 C32.11425304 87.1448074 32.10840222 90.75984176 32.10139394 94.37490201 C32.09511314 98.16252548 32.09455288 101.95014984 32.09336853 105.73777771 C32.09026909 112.89859395 32.08207451 120.05939481 32.07201904 127.22020429 C32.06081468 135.37745035 32.05533659 143.53469717 32.05032361 151.69194901 C32.03989065 168.46130975 32.02156254 185.23064931 32 202 C16.16 202 0.32 202 -16 202 C-16.02187378 195.9520813 -16.02187378 195.9520813 -16.04418945 189.78198242 C-16.09458402 176.44274003 -16.16103911 163.1036179 -16.23571491 149.76449108 C-16.2805891 141.67902624 -16.32002285 133.59360461 -16.34643555 125.50805664 C-16.36948373 118.45676284 -16.40295727 111.40560679 -16.44870156 104.35442239 C-16.47254232 100.62442122 -16.49133074 96.8945557 -16.49761391 93.16448021 C-16.50484186 88.9899101 -16.53535561 84.81580914 -16.56762695 80.64135742 C-16.56619186 79.41855576 -16.56475677 78.19575409 -16.5632782 76.93589783 C-16.71935135 62.60800676 -20.92127426 48.44532947 -30.9609375 37.80859375 C-43.29384294 26.8696374 -57.01061406 23.25997436 -73.08056641 23.86376953 C-77.34809333 24.1666543 -81.08192793 25.34852594 -85 27 C-85.81726563 27.32871094 -86.63453125 27.65742188 -87.4765625 27.99609375 C-101.30862275 34.1841207 -108.86364536 44.95571916 -114.23828125 58.67578125 C-115.67544896 63.0609853 -116.12845481 67.15950852 -116.15821838 71.76435852 C-116.17290161 73.49115593 -116.17290161 73.49115593 -116.18788147 75.25283813 C-116.19363693 76.50656219 -116.1993924 77.76028625 -116.20532227 79.05200195 C-116.21490794 80.39262692 -116.22491843 81.73324892 -116.23532104 83.0738678 C-116.26230148 86.70566819 -116.28334807 90.33748149 -116.30332303 93.96932626 C-116.32522503 97.76767581 -116.35259306 101.5659859 -116.37937927 105.36430359 C-116.42924927 112.55355682 -116.47420917 119.74283202 -116.51740164 126.93212813 C-116.56682273 135.1183296 -116.62172276 143.30449146 -116.67708123 151.49065459 C-116.79081386 168.32706783 -116.89694857 185.16351748 -117 202 C-132.84 202 -148.68 202 -165 202 C-165.06794022 184.15297606 -165.12311101 166.30606394 -165.15543652 148.45894623 C-165.17085033 140.17066286 -165.19183379 131.88246606 -165.22631836 123.59423828 C-165.25638994 116.3631571 -165.27561477 109.13213867 -165.28226548 101.90099669 C-165.28614795 98.07855674 -165.29515508 94.25629616 -165.31719017 90.43391418 C-165.50756844 56.07761747 -160.37569608 27.80677448 -135.5625 2.1875 C-122.37065482 -10.54819563 -106.58186912 -18.38989207 -89 -23 C-88.11570312 -23.24621094 -87.23140625 -23.49242188 -86.3203125 -23.74609375 C-55.3338802 -30.92346226 -23.70944545 -19.69612786 0 0 Z " fill="#4169E1" transform="translate(618,107)"/>
<path d="M0 0 C15.84 0 31.68 0 48 0 C48.0093457 6.7227832 48.01869141 13.44556641 48.02832031 20.37207031 C48.0620822 42.58016067 48.1174261 64.78815847 48.18390274 86.99617386 C48.19185396 89.67876412 48.19972031 92.36135461 48.20751953 95.04394531 C48.2094609 95.7106953 48.21140228 96.37744528 48.21340248 97.06439981 C48.24437408 107.84245421 48.26138958 118.62048735 48.27319422 129.39857784 C48.28563094 140.46829869 48.31348409 151.53790476 48.35461307 162.6075561 C48.37721434 168.82085947 48.39291146 175.03400448 48.39188385 181.2473526 C48.39113647 187.10131004 48.40911917 192.9549176 48.44116783 198.80878448 C48.44965277 200.95165409 48.45142637 203.094563 48.44580269 205.23744202 C48.40499402 223.1846477 50.87267541 238.57432713 64 252 C73.54714325 260.00380807 83.96544422 263.32565427 96 266 C96 281.84 96 297.68 96 314 C72.42483829 311.51840403 54.41271708 306.84176589 36 292 C35.16984375 291.33484375 34.3396875 290.6696875 33.484375 289.984375 C17.46505244 276.38306339 6.91789218 258.32855869 2 238 C1.82578081 237.33176051 1.65156162 236.66352102 1.47206306 235.97503185 C-0.79239212 225.76902093 -0.26381228 215.30474178 -0.22705078 204.91333008 C-0.22648602 202.67528285 -0.22680448 200.43723525 -0.22793579 198.19918823 C-0.22850779 192.14834693 -0.21677826 186.0975855 -0.20278788 180.0467627 C-0.19025497 173.71401519 -0.189108 167.38126569 -0.18673706 161.04850769 C-0.18123431 150.42742373 -0.16875604 139.80637118 -0.15087891 129.18530273 C-0.1324928 118.25040837 -0.11834969 107.31552195 -0.10986328 96.38061523 C-0.10907511 95.36787818 -0.10907511 95.36787818 -0.10827102 94.33468179 C-0.10566075 90.94727464 -0.10313338 87.55986744 -0.10064721 84.1724602 C-0.07994748 56.1149486 -0.04309549 28.05748663 0 0 Z " fill="#4169E1" transform="translate(908,0)"/>
<path d="M0 0 C1.12667054 1.8371567 2.17585123 3.72208171 3.1875 5.625 C8.20629558 14.43117534 14.10522129 18.44167803 23 23 C21.63725504 26.0451561 20.09949092 28.15271591 17.74927425 30.51078796 C17.0750637 31.1920641 16.40085316 31.87334024 15.70621198 32.57526112 C14.96333278 33.31572524 14.22045357 34.05618937 13.45506287 34.8190918 C12.66749495 35.61189639 11.87992704 36.40470098 11.06849343 37.22152996 C8.41950055 39.88556395 5.76336758 42.54236188 3.10717773 45.19921875 C1.20978318 47.10423208 -0.68722771 49.00962095 -2.58381653 50.91543579 C-7.74397348 56.09844134 -12.91158345 61.27397336 -18.08064771 66.44809341 C-21.30917718 69.67988045 -24.53607101 72.91329718 -27.76261711 76.14706421 C-36.69888325 85.10289709 -45.63672827 94.05714555 -54.5813303 103.00465393 C-55.15371258 103.57722378 -55.72609486 104.14979363 -56.31582206 104.73971409 C-57.47615906 105.90041733 -58.63649732 107.0611193 -59.79683686 108.22182 C-60.37281868 108.79798463 -60.94880051 109.37414927 -61.54223633 109.96777344 C-62.1189238 110.54464146 -62.69561127 111.12150947 -63.28977411 111.71585834 C-72.63081183 121.06043658 -81.96005489 130.41669415 -91.28414501 139.77818 C-100.86072482 149.39285968 -110.44665279 158.99813403 -120.04215091 168.59393406 C-125.42802059 173.98038797 -130.80987857 179.37071605 -136.18155098 184.77133179 C-140.75640296 189.37072021 -145.33980678 193.96136913 -149.93445349 198.54098678 C-152.27710872 200.87648205 -154.6141898 203.21710473 -156.9432373 205.56618118 C-159.47279991 208.11616382 -162.01734013 210.65021237 -164.56617737 213.1809082 C-165.6570736 214.29160439 -165.6570736 214.29160439 -166.77000815 215.42473888 C-172.5346566 221.09624386 -178.43375912 225.00844677 -186.6875 225.4375 C-192.08873252 225.15520562 -195.61576818 223.49646683 -199.3125 219.5 C-202.2436287 215.1575871 -202.46835598 211.09681509 -202 206 C-198.50708188 191.56260511 -181.88175381 179.73321582 -171.75219727 169.60693359 C-169.90172294 167.75346369 -168.0514527 165.89979001 -166.20137024 164.04592896 C-161.71829375 159.55459565 -157.23248994 155.06599623 -152.74556328 150.57850961 C-149.10091819 146.93338775 -145.45706716 143.28747397 -141.81376457 139.64101028 C-131.47589517 129.29435408 -121.13595231 118.94977648 -110.79331256 108.60788874 C-110.23737146 108.05198761 -109.68143037 107.49608647 -109.10864258 106.92333984 C-108.55202114 106.36675928 -107.99539969 105.81017872 -107.42191093 105.23673208 C-98.3730784 96.18830723 -89.32926274 87.13488617 -80.28766931 78.07922821 C-70.99566091 68.77287987 -61.69995351 59.47024066 -52.40033954 50.17149222 C-47.18226144 44.95374652 -41.96574412 39.73446183 -36.75320625 34.51118088 C-31.8617404 29.6096974 -26.96517766 24.71335776 -22.06504631 19.82053757 C-20.26289941 18.01944218 -18.46247776 16.21661873 -16.66386414 14.41199493 C-14.21952578 11.96001454 -11.76919061 9.51419397 -9.31715393 7.06991577 C-8.59762041 6.34523869 -7.87808689 5.62056161 -7.13674933 4.87392461 C-6.48343915 4.22521323 -5.83012898 3.57650185 -5.15702152 2.90813255 C-4.59156024 2.3424539 -4.02609896 1.77677525 -3.44350249 1.19395483 C-2 0 -2 0 0 0 Z " fill="#4169E1" transform="translate(202,161)"/>
<path d="M0 0 C1.65 0 3.3 0 5 0 C7.97 6.6 10.94 13.2 14 20 C16.05641004 17.94358996 16.79540375 16.50084948 17.9453125 13.8671875 C18.29980469 13.06152344 18.65429688 12.25585938 19.01953125 11.42578125 C19.38433594 10.58402344 19.74914063 9.74226563 20.125 8.875 C20.68380859 7.60076172 20.68380859 7.60076172 21.25390625 6.30078125 C22.17346105 4.20231004 23.08863193 2.10203658 24 0 C25.65 0 27.3 0 29 0 C29 9.57 29 19.14 29 29 C27.35 29 25.7 29 24 29 C23.67 24.38 23.34 19.76 23 15 C20.69 19.62 18.38 24.24 16 29 C14.68 28.67 13.36 28.34 12 28 C10.56053399 25.4692315 9.38058455 23.09898337 8.25 20.4375 C7.77626953 19.37112305 7.77626953 19.37112305 7.29296875 18.28320312 C6.51545957 16.52791726 5.75598145 14.76466457 5 13 C4.67 18.28 4.34 23.56 4 29 C2.68 29 1.36 29 0 29 C0 19.43 0 9.86 0 0 Z " fill="#4169E1" transform="translate(1481,277)"/>
<path d="M0 0 C6.6 0 13.2 0 20 0 C20 1.32 20 2.64 20 4 C17.69 4 15.38 4 13 4 C13 12.25 13 20.5 13 29 C11.35 29 9.7 29 8 29 C8 20.75 8 12.5 8 4 C5.36 4 2.72 4 0 4 C0 2.68 0 1.36 0 0 Z " fill="#4169E1" transform="translate(1457,277)"/>
</svg>
